<?xml version="1.0" encoding="UTF-8"?>
<svg xmlns="http://www.w3.org/2000/svg" viewBox="0 0 256 256" width="256" height="256">
  <!--
    signalk-backup icon
    Rounded square (SignalK admin tile aesthetic) with a SignalK-blue
    gradient, a white shield (backup, protection), and a green
    checkmark (snapshot completed). Fills the whole viewBox so no
    underlying tile background shows through.
  -->
  <defs>
    <linearGradient id="seaGrad" x1="0" x2="0" y1="0" y2="1">
      <stop offset="0%" stop-color="#1a73c4"/>
      <stop offset="100%" stop-color="#0d4d8a"/>
    </linearGradient>
    <linearGradient id="shieldGrad" x1="0" x2="0" y1="0" y2="1">
      <stop offset="0%" stop-color="#fafbfc"/>
      <stop offset="100%" stop-color="#e6ebf0"/>
    </linearGradient>
  </defs>

  <!-- The SignalK admin tile renders this with `bg-primary` (Bootstrap
       blue) underneath. Without a backdrop the rounded-rect corners
       show that blue. Paint a white square first, then the rounded
       blue tile on top, so the corner cutouts read as white. -->
  <rect x="0" y="0" width="256" height="256" fill="#ffffff"/>
  <rect x="0" y="0" width="256" height="256" rx="36" ry="36" fill="url(#seaGrad)"/>

  <!-- waves -->
  <path d="M 0 168 Q 40 152, 80 168 T 160 168 T 256 168 V 256 H 0 Z"
        fill="#ffffff" fill-opacity="0.18"/>
  <path d="M 0 192 Q 40 178, 80 192 T 160 192 T 256 192 V 256 H 0 Z"
        fill="#ffffff" fill-opacity="0.12"/>

  <!-- shield body -->
  <path d="M 128 40
           L 196 64
           L 196 124
           Q 196 168, 128 200
           Q 60 168, 60 124
           L 60 64 Z"
        fill="url(#shieldGrad)"
        stroke="#0d4d8a" stroke-width="6" stroke-linejoin="round"/>

  <!-- checkmark -->
  <path d="M 90 128 L 118 156 L 170 96"
        fill="none"
        stroke="#10b981"
        stroke-width="16"
        stroke-linecap="round"
        stroke-linejoin="round"/>
</svg>
